<svg width="34" height="34" viewBox="0 0 34 34" fill="none" xmlns="http://www.w3.org/2000/svg">
<path d="M27.6356 28.9555C26.3934 27.3108 24.7862 25.977 22.9408 25.0592C21.0953 24.1414 19.062 23.6646 17.0009 23.6665C14.9398 23.6646 12.9065 24.1414 11.061 25.0592C9.21556 25.977 7.60843 27.3108 6.36622 28.9555M27.6356 28.9555C30.0596 26.7993 31.7691 23.9573 32.5408 20.8062C33.3124 17.6551 33.108 14.3438 31.9546 11.3116C30.8012 8.27936 28.7533 5.66937 26.0825 3.82778C23.4117 1.98619 20.2442 1 17 1C13.7558 1 10.5883 1.98619 7.91752 3.82778C5.24671 5.66937 3.19881 8.27936 2.0454 11.3116C0.891985 14.3438 0.687561 17.6551 1.45924 20.8062C2.23091 23.9573 3.94222 26.7993 6.36622 28.9555M27.6356 28.9555C24.7094 31.5656 20.922 33.0056 17.0009 33C13.0792 33.006 9.29286 31.566 6.36622 28.9555M22.3342 12.9997C22.3342 14.4142 21.7723 15.7708 20.7721 16.771C19.7719 17.7712 18.4154 18.3331 17.0009 18.3331C15.5864 18.3331 14.2298 17.7712 13.2297 16.771C12.2295 15.7708 11.6676 14.4142 11.6676 12.9997C11.6676 11.5852 12.2295 10.2286 13.2297 9.22837C14.2298 8.22816 15.5864 7.66625 17.0009 7.66625C18.4154 7.66625 19.7719 8.22816 20.7721 9.22837C21.7723 10.2286 22.3342 11.5852 22.3342 12.9997Z" stroke="white" stroke-width="1.5" stroke-linecap="round" stroke-linejoin="round"/>
</svg>
