<svg xmlns="http://www.w3.org/2000/svg" width="20" height="18" viewBox="0 0 20 18" fill="none">
  <path d="M0.757842 5.46605L0.757792 5.46758C0.738442 6.05928 0.752337 6.22056 0.827404 6.61816C0.989613 7.42483 1.26949 8.06608 1.70808 8.64964L1.70809 8.64963L1.71125 8.6539C1.71119 8.65382 1.71213 8.65488 1.71412 8.65712C1.73231 8.67758 1.83798 8.79643 2.0654 9.04182C2.29542 9.29002 2.6148 9.63066 3.00082 10.0396C3.77253 10.8572 4.8066 11.9437 5.91629 13.1011L5.9169 13.1018C7.33085 14.58 8.35163 15.6376 9.03484 16.3323C9.37703 16.6802 9.63069 16.9332 9.80511 17.1012C9.87065 17.1643 9.92189 17.2124 9.9605 17.2475C9.99817 17.252 10.0384 17.2503 10.0723 17.2435C10.1173 17.2025 10.1808 17.1423 10.2655 17.0599C10.4506 16.8796 10.7175 16.6114 11.0724 16.2488C11.7814 15.5245 12.8285 14.4366 14.2476 12.9503C16.1024 11.0058 17.1371 9.91596 17.7382 9.26066C18.3486 8.59524 18.4691 8.42223 18.5423 8.2958L18.5427 8.29512C19.2791 7.02632 19.4493 5.49318 19.0117 4.12518L19.0112 4.12384C18.5157 2.56495 17.2938 1.38034 15.7492 0.945051L15.7492 0.945032C15.5314 0.883652 15.4266 0.860655 15.3028 0.847668C15.1632 0.833015 14.9816 0.829327 14.6087 0.832071V0.832092H14.6032C14.2358 0.832092 14.0504 0.836758 13.9084 0.851709C13.7833 0.864878 13.6799 0.887257 13.4809 0.94421L13.4809 0.944252L13.4731 0.946405C12.6008 1.1859 12.0052 1.54759 11.1512 2.41009C11.1508 2.41045 11.1505 2.41082 11.1501 2.41119L10.545 3.02754L10.0125 3.56997L9.47727 3.03023L8.89077 2.43878L8.89076 2.43879L8.88725 2.4352C8.23095 1.76445 7.88789 1.50931 7.32651 1.23204L7.3265 1.23206L7.32124 1.22941C6.8348 0.984388 6.37763 0.851263 5.80376 0.789852L5.80376 0.789869L5.79872 0.789295C5.5282 0.758493 5.42888 0.749578 5.33494 0.750015C5.24007 0.750456 5.13623 0.760519 4.85823 0.794048C3.23575 0.99366 1.77953 2.10849 1.12708 3.67811C0.867315 4.31208 0.781141 4.70603 0.757842 5.46605ZM10.0213 17.2884C10.0218 17.288 10.0226 17.2873 10.0236 17.2865C10.0159 17.2923 10.0146 17.2938 10.0213 17.2884Z" stroke="white" stroke-width="1.5"/>
</svg>