<svg width="10" height="11" viewBox="0 0 10 11" fill="none" xmlns="http://www.w3.org/2000/svg">
<path d="M1 2.17848C1 1.66302 1.532 1.33664 1.96712 1.58473L8.66212 5.40732C8.76445 5.4658 8.84978 5.55172 8.90922 5.6561C8.96865 5.76049 9 5.87952 9 6.00077C9 6.12202 8.96865 6.24104 8.90922 6.34543C8.84978 6.44981 8.76445 6.53573 8.66212 6.59421L1.96712 10.4162C1.86777 10.4729 1.75591 10.5017 1.64256 10.4999C1.5292 10.4981 1.41826 10.4657 1.32065 10.4058C1.22305 10.3459 1.14215 10.2607 1.08592 10.1585C1.0297 10.0564 1.00008 9.94073 1 9.82306V2.17848Z" stroke="white" stroke-linecap="round" stroke-linejoin="round"/>
</svg>
