<svg xmlns="http://www.w3.org/2000/svg" width="22" height="22" viewBox="0 0 22 22" fill="none">
  <path d="M16.9502 0.0140285C16.8588 0.0257473 16.4986 0.0667648 16.1499 0.0960636C15.1723 0.189819 13.9375 0.38905 13.7774 0.476946C13.6974 0.523823 13.5087 0.629299 13.3487 0.717196C12.1882 1.35591 9.50128 3.13726 8.26074 4.0924C4.55627 6.94022 1.7036 9.95798 0.480209 12.3077C0.125769 12.9933 0 13.4035 0 13.8723C0 14.2356 0.0171502 14.2942 0.17722 14.4758C0.554528 14.9153 1.11477 14.8977 3.83024 14.3352C6.36277 13.8137 6.62003 13.7785 8.17499 13.7785C9.6442 13.7785 9.90717 13.8195 10.6046 14.1535C11.2849 14.4758 11.5993 14.8977 11.6508 15.5482C11.6965 16.181 11.4679 16.7963 10.8905 17.5873C10.2902 18.4077 9.56988 19.0288 8.0092 20.107C6.87728 20.8805 6.04263 21.3786 5.3852 21.6598C4.89356 21.8708 4.79066 21.9704 5.01933 21.9997C5.1451 22.0173 7.54043 21.2321 8.77525 20.7692C11.405 19.7789 13.886 18.3608 15.9784 16.6615C16.7444 16.0404 18.105 14.6223 18.6538 13.8723C19.3856 12.882 19.6886 12.1378 19.6829 11.3467C19.6829 10.415 19.1798 9.82907 18.0936 9.49506C17.5905 9.33685 17.5448 9.33099 15.7097 9.30755C13.6402 9.28411 13.6059 9.27825 13.8289 8.95597C14.1547 8.48719 15.4524 7.3504 17.8592 5.43427C19.9744 3.75253 20.4032 3.37751 21.1235 2.60403C21.9181 1.75437 22.1354 1.27973 21.9238 0.863689C21.6266 0.265997 20.729 0.0433273 18.4652 0.00816917C17.7277 -0.00354958 17.0474 -0.00355148 16.9502 0.0140285ZM7.26031 20.9801C7.26031 20.9977 7.23744 21.027 7.20314 21.0446C7.17455 21.0622 7.14597 21.0504 7.14597 21.0211C7.14597 20.986 7.17455 20.9567 7.20314 20.9567C7.23744 20.9567 7.26031 20.9684 7.26031 20.9801Z" fill="#FF137F"/>
</svg>