<svg xmlns="http://www.w3.org/2000/svg" width="20" height="18" viewBox="0 0 20 18" fill="none">
  <path d="M4.76766 0.0495358C2.86803 0.282858 1.18638 1.57969 0.433794 3.392C0.137949 4.11367 0.0341439 4.59659 0.00819261 5.44306C-0.0125684 6.07792 0.00300235 6.29496 0.0912367 6.7616C0.272896 7.66776 0.594692 8.41656 1.10853 9.10025C1.23309 9.26845 3.15349 11.3032 5.37492 13.6202C8.20361 16.5774 9.47003 17.8634 9.60498 17.9231C9.86449 18.0316 10.1967 18.0262 10.451 17.9014C10.5911 17.8308 11.951 16.4417 14.79 13.4682C18.4959 9.58317 18.9526 9.08397 19.1914 8.67158C20.0322 7.22282 20.2294 5.47019 19.726 3.89663C19.1551 2.1006 17.7433 0.727797 15.9527 0.223169C15.4907 0.0929432 15.3402 0.0766659 14.6032 0.0820923C13.8766 0.0820923 13.7105 0.0983696 13.2745 0.223169C12.2468 0.505327 11.5409 0.950266 10.6171 1.88355L10.0098 2.50213L9.42332 1.91068C8.72783 1.19987 8.3178 0.885153 7.65863 0.559587C7.08771 0.272005 6.54273 0.114649 5.88357 0.0441093C5.35935 -0.0155773 5.30745 -0.0155773 4.76766 0.0495358Z" fill="#FF137F"/>
</svg>