<?xml version="1.0" encoding="UTF-8" standalone="no"?>
<svg
   xmlns:dc="http://purl.org/dc/elements/1.1/"
   xmlns:cc="http://creativecommons.org/ns#"
   xmlns:rdf="http://www.w3.org/1999/02/22-rdf-syntax-ns#"
   xmlns:svg="http://www.w3.org/2000/svg"
   xmlns="http://www.w3.org/2000/svg"
   xmlns:sodipodi="http://sodipodi.sourceforge.net/DTD/sodipodi-0.dtd"
   xmlns:inkscape="http://www.inkscape.org/namespaces/inkscape"
   viewBox="0 0 99.61801 92.147011"
   height="92.147011"
   width="99.618011"
   xml:space="preserve"
   id="svg2"
   version="1.1"
   inkscape:version="0.91 r13725"
   sodipodi:docname="Kakao_corp.svg"><sodipodi:namedview
     pagecolor="#ffffff"
     bordercolor="#666666"
     borderopacity="1"
     objecttolerance="10"
     gridtolerance="10"
     guidetolerance="10"
     inkscape:pageopacity="0"
     inkscape:pageshadow="2"
     inkscape:window-width="1680"
     inkscape:window-height="988"
     id="namedview349"
     showgrid="false"
     inkscape:zoom="3.3640075"
     inkscape:cx="41.067253"
     inkscape:cy="21.64234"
     inkscape:window-x="-8"
     inkscape:window-y="-8"
     inkscape:window-maximized="1"
     inkscape:current-layer="svg2"
     fit-margin-top="1"
     fit-margin-left="1"
     fit-margin-bottom="1"
     fit-margin-right="1" /><defs
     id="defs6"><clipPath
       id="clipPath692"
       clipPathUnits="userSpaceOnUse"><path
         id="path690"
         d="m 0,595.28 841.89,0 L 841.89,0 0,0 Z"
         inkscape:connector-curvature="0" /></clipPath></defs><g
     id="g686"
     transform="matrix(1,0,0,-1,-362.26358,234.09895)"><g
       clip-path="url(#clipPath692)"
       id="g688"><g
         transform="translate(163.2612,376.6777)"
         id="g694"><path
           id="path696"
           style="fill:#3c1e1e;fill-opacity:1;fill-rule:nonzero;stroke:none"
           d="m 248.81039,-143.57875 c -26.953,0 -48.80801,-17.256 -48.80801,-38.555 0,-13.68101 9.05201,-25.69301 22.64601,-32.54901 l -4.599,-17.167 c -0.176,-0.527 -0.03,-1.085 0.352,-1.465 0.263,-0.265 0.614,-0.411 0.995,-0.411 0.294,0 0.586,0.117 0.85,0.322 l 19.775,13.36 c 2.872,-0.41 5.802,-0.644 8.789,-0.644 26.953,0 48.81,17.255 48.81,38.55401 0,21.299 -21.857,38.555 -48.81,38.555"
           inkscape:connector-curvature="0" /></g></g></g></svg>