<svg xmlns="http://www.w3.org/2000/svg" width="20" height="20" viewBox="0 0 24 24"><g
        fill="white"><path fill-rule="evenodd"
                       d="M5.467 4.392a.75.75 0 0 1-.001 1.06A9.219 9.219 0 0 0 2.75 12a9.22 9.22 0 0 0 2.775 6.606a.75.75 0 1 1-1.05 1.071A10.72 10.72 0 0 1 1.25 12c0-2.972 1.207-5.664 3.156-7.609a.75.75 0 0 1 1.06.001Zm13.15.072a.75.75 0 0 1 1.06.011A10.718 10.718 0 0 1 22.75 12c0 2.964-1.2 5.65-3.141 7.594a.75.75 0 1 1-1.062-1.06A9.219 9.219 0 0 0 21.25 12a9.218 9.218 0 0 0-2.644-6.475a.75.75 0 0 1 .01-1.06ZM8.308 7.488a.75.75 0 0 1-.035 1.06c-.949.888-1.524 2.102-1.524 3.434c0 1.348.589 2.575 1.558 3.466a.75.75 0 1 1-1.016 1.104c-1.252-1.151-2.042-2.77-2.042-4.57c0-1.779.771-3.38 2-4.53a.75.75 0 0 1 1.06.036Zm7.434.038a.75.75 0 0 1 1.06-.024c1.197 1.145 1.947 2.727 1.947 4.48c0 1.775-.767 3.373-1.99 4.521a.75.75 0 1 1-1.027-1.093c.945-.887 1.517-2.1 1.517-3.428c0-1.313-.559-2.512-1.484-3.396a.75.75 0 0 1-.023-1.06Z" clip-rule="evenodd"/><path d="M13.656 10.451c.896.658 1.344.987 1.344 1.55c0 .562-.448.89-1.344 1.548a12.83 12.83 0 0 1-.718.495c-.197.125-.421.254-.653.381c-.894.49-1.34.734-1.741.463c-.401-.27-.438-.838-.51-1.971c-.02-.32-.034-.635-.034-.917c0-.282.013-.596.034-.917c.072-1.133.109-1.7.51-1.97c.4-.271.847-.027 1.74.462c.233.127.457.256.654.381c.226.143.471.314.718.495Z"/></g></svg>