<svg xmlns="http://www.w3.org/2000/svg" width="16" height="18" viewBox="0 0 16 18" fill="none">
  <path fill-rule="evenodd" clip-rule="evenodd" d="M11.077 2.57143C11.0769 1.97372 11.2762 1.39468 11.6406 0.933838C12.005 0.472998 12.5117 0.159159 13.0736 0.0462763C13.6355 -0.0666062 14.2175 0.0285209 14.7195 0.315303C15.2216 0.602085 15.6123 1.0626 15.8245 1.61769C16.0367 2.17277 16.0571 2.78773 15.8823 3.35685C15.7074 3.92597 15.3483 4.41368 14.8665 4.73614C14.3847 5.0586 13.8104 5.19566 13.2424 5.12375C12.6743 5.05185 12.148 4.77547 11.7539 4.34213L4.84444 8.35237C4.95 8.77671 4.95 9.2222 4.84444 9.64654L11.7539 13.6568C12.1668 13.2033 12.7239 12.9227 13.3207 12.8676C13.9175 12.8125 14.5131 12.9866 14.9958 13.3574C15.4785 13.7282 15.8151 14.2701 15.9426 14.8816C16.0701 15.4931 15.9797 16.1322 15.6884 16.6791C15.397 17.226 14.9248 17.6431 14.36 17.8522C13.7953 18.0613 13.177 18.0481 12.6209 17.8151C12.0649 17.5821 11.6093 17.1452 11.3395 16.5864C11.0698 16.0275 11.0045 15.3851 11.1557 14.7795L4.24629 10.7702C3.90731 11.143 3.46909 11.4011 2.98826 11.5111C2.50742 11.6211 2.00604 11.578 1.54889 11.3874C1.09173 11.1968 0.699788 10.8674 0.423685 10.4417C0.147582 10.016 0 9.51363 0 8.99945C0 8.48528 0.147582 7.98291 0.423685 7.55723C0.699788 7.13156 1.09173 6.80213 1.54889 6.61149C2.00604 6.42086 2.50742 6.37777 2.98826 6.48781C3.46909 6.59784 3.90731 6.85593 4.24629 7.22875L11.1557 3.21851C11.1033 3.00719 11.0768 2.78974 11.077 2.57143Z" fill="#FF137F"/>
</svg>