<?xml version="1.0" standalone="no"?>
<!DOCTYPE svg PUBLIC "-//W3C//DTD SVG 20010904//EN"
 "http://www.w3.org/TR/2001/REC-SVG-20010904/DTD/svg10.dtd">
<svg version="1.0" xmlns="http://www.w3.org/2000/svg"
 width="494.000000pt" height="505.000000pt" viewBox="0 0 494.000000 505.000000"
 preserveAspectRatio="xMidYMid meet">
<metadata>
Created by potrace 1.16, written by Peter Selinger 2001-2019
</metadata>
<g transform="translate(0.000000,505.000000) scale(0.100000,-0.100000)"
fill="#de2f5f" stroke="none">
<path d="M3520 4023 c-328 -33 -518 -64 -557 -91 -15 -11 -107 -66 -203 -122
-517 -304 -990 -664 -1403 -1069 -328 -322 -532 -581 -646 -823 -78 -163 -88
-264 -35 -328 60 -71 189 -67 609 19 454 92 476 95 750 96 204 0 250 -3 305
-18 145 -41 233 -103 270 -189 19 -44 22 -65 18 -134 -4 -70 -10 -94 -42 -158
-97 -198 -311 -395 -696 -641 -131 -83 -281 -164 -368 -197 -45 -17 -58 -48
-21 -48 36 0 637 206 804 275 508 212 966 507 1290 830 234 234 362 426 401
602 37 168 -22 295 -169 368 -118 58 -199 69 -529 69 -211 1 -290 4 -299 13
-10 10 -6 21 17 54 53 77 244 238 885 744 207 163 433 386 473 468 31 63 32
116 2 162 -53 80 -294 127 -645 123 -97 0 -192 -3 -211 -5z"/>
</g>
</svg>
