<svg xmlns="http://www.w3.org/2000/svg" xmlns:xlink="http://www.w3.org/1999/xlink" version="1.1" fill="#FFFFFF" x="0px" y="0px" viewBox="0 0 32 40" style="enable-background:new 0 0 32 32;" xml:space="preserve"><path d="M25.6592,15.5898c-0.0078-0.0098-0.0156-0.0176-4.2969-4.4033c-0.817-0.837-2.1843-0.8049-2.9932,0.0234  c-0.3087,0.3163-0.5028,0.7056-0.5823,1.1122c-0.3268-0.2089-0.704-0.3254-1.1033-0.3261c-0.5723,0-1.1104,0.2295-1.5166,0.6455  c-0.3087,0.3164-0.5027,0.7058-0.582,1.1127c-0.3273-0.209-0.7053-0.3256-1.1035-0.3256c-0.5723,0-1.1104,0.2295-1.5166,0.6455  c-0.2923,0.2989-0.4769,0.6642-0.5638,1.0469c0,0-0.0493-0.0505-0.1299-0.1331c0.1077-0.3525,0.1741-0.7151,0.1741-1.0867  c0-1.9177-1.4627-3.4827-3.3281-3.6828V3.7402l1.9355,1.9355c0.0977,0.0977,0.2256,0.1465,0.3535,0.1465  s0.2559-0.0488,0.3535-0.1465c0.1953-0.1953,0.1953-0.5117,0-0.707L7.9375,2.1465c-0.1953-0.1953-0.5117-0.1953-0.707,0  L4.4746,4.9023c-0.1953,0.1953-0.1953,0.5117,0,0.707s0.5117,0.1953,0.707,0l1.9355-1.9355v6.5661  C5.3531,10.5314,4,12.056,4,13.9014s1.3531,3.37,3.1172,3.6614V28.259l-1.9355-1.9348c-0.1953-0.1953-0.5117-0.1953-0.707,0  s-0.1953,0.5117,0,0.707l2.8232,2.8223C7.3916,29.9473,7.5186,30,7.6514,30s0.2598-0.0527,0.3535-0.1465l2.7549-2.7559  c0.1953-0.1953,0.1953-0.5117,0-0.707s-0.5117-0.1953-0.707,0L8.1172,28.327V17.5944c0.1769-0.0187,0.3492-0.0599,0.5215-0.1012  l3.5602,3.6467c-0.0474-0.0018-0.0926-0.0139-0.1423-0.0139c-1.0078,0-1.959,0.4043-2.6768,1.1396  c-0.1904,0.1943-0.1904,0.5049,0,0.6992l4.5107,4.6201C15.4102,29.1426,17.4434,30,19.6152,30c2.2295,0,4.333-0.8965,5.9229-2.5254  C28.7715,24.1641,28.8203,18.8262,25.6592,15.5898z M7.7227,16.624C6.2217,16.624,5,15.4023,5,13.9014s1.2217-2.7227,2.7227-2.7227  s2.7227,1.2217,2.7227,2.7227c0,0.0746-0.0133,0.1472-0.0193,0.2209c-0.7292-0.747-1.6005-1.6395-1.6018-1.6409  c-0.6921-0.709-1.8528-0.6852-2.5381,0.0176c-0.6953,0.7119-0.7041,1.8623-0.0186,2.5654l1.518,1.5549  C7.7645,16.6198,7.7438,16.624,7.7227,16.624z M24.8232,26.7754C23.4229,28.21,21.5732,29,19.6152,29  c-1.8994,0-3.6787-0.751-5.0098-2.1143l-4.1406-4.2412c0.4658-0.3369,1.0166-0.5186,1.5928-0.5186  c0.7119,0,1.3789,0.2813,1.8779,0.793c0,0,1.3444,1.3773,1.3525,1.3857c0.4539,0.4651,1.1655-0.2372,0.7149-0.6992l-9.0195-9.2393  c-0.3096-0.3174-0.3018-0.8418,0.0176-1.168c0.3003-0.3068,0.8015-0.3328,1.1074-0.0186c0,0,7.3963,7.5768,7.4412,7.6228  c0.4474,0.4584,1.1713-0.2312,0.715-0.699c0,0-3.6059-3.6939-3.6074-3.6963c-0.4336-0.4443-0.4238-1.1767,0.0224-1.6337  c0.4239-0.4341,1.1318-0.4647,1.5626-0.0235c0,0,0.8999,0.9217,0.9041,0.926c0,0,2.4625,2.5223,2.4788,2.5388  c0.4492,0.4601,1.1691-0.2334,0.7148-0.6992l-2.4816-2.5417c-0.4321-0.4445-0.4213-1.1765,0.0236-1.6331  c0.4229-0.4341,1.1327-0.4647,1.5625-0.0225l2.4814,2.541c0.4561,0.4652,1.1578-0.2455,0.7148-0.6992  c0,0-1.5788-1.6167-1.5791-1.6172c-0.4336-0.4434-0.4238-1.1767,0.0224-1.6337c0.4238-0.4341,1.1325-0.465,1.5635-0.0235  c0,0,4.2109,4.3145,4.2842,4.3896C27.7285,19.1396,27.6797,23.8506,24.8232,26.7754z"/></svg>