<svg width="22" height="22" viewBox="0 0 22 22" fill="none" xmlns="http://www.w3.org/2000/svg">
<g id="Frame">
<path id="Vector" fill-rule="evenodd" clip-rule="evenodd" d="M2.0625 11C2.0625 6.06375 6.06375 2.0625 11 2.0625C15.9363 2.0625 19.9375 6.06375 19.9375 11C19.9375 15.9363 15.9363 19.9375 11 19.9375C6.06375 19.9375 2.0625 15.9363 2.0625 11ZM14.3092 9.33717C14.3642 9.26388 14.404 9.18034 14.4262 9.09145C14.4485 9.00257 14.4527 8.91013 14.4387 8.81957C14.4248 8.72902 14.3928 8.64217 14.3448 8.56414C14.2968 8.48611 14.2336 8.41846 14.1591 8.36518C14.0845 8.3119 14.0001 8.27406 13.9107 8.25388C13.8213 8.2337 13.7288 8.23159 13.6386 8.24767C13.5484 8.26376 13.4623 8.29771 13.3854 8.34754C13.3085 8.39737 13.2424 8.46207 13.1908 8.53783L10.2245 12.6903L8.73583 11.2017C8.60551 11.0802 8.43313 11.0141 8.25502 11.0173C8.07691 11.0204 7.90698 11.0926 7.78101 11.2185C7.65505 11.3445 7.5829 11.5144 7.57976 11.6925C7.57661 11.8706 7.64273 12.043 7.76417 12.1733L9.82667 14.2358C9.89724 14.3064 9.98232 14.3607 10.076 14.395C10.1697 14.4293 10.2697 14.4429 10.3691 14.4347C10.4685 14.4265 10.565 14.3967 10.6518 14.3475C10.7386 14.2983 10.8136 14.2308 10.8717 14.1497L14.3092 9.33717Z" fill="#0EFA50"/>
</g>
</svg>
